<?xml version="1.0" encoding="UTF-8"?>
<svg version="1.1" xmlns="http://www.w3.org/2000/svg" width="394" height="360">
<path d="M0 0 C13.03407841 9.33635869 21.65468925 23.07800368 24.75 38.8125 C24.86400113 40.20616383 24.94248499 41.60286466 25 43 C25.0515625 44.05058594 25.103125 45.10117188 25.15625 46.18359375 C25.59086317 62.71700295 20.59106632 77.5213561 9.25 89.6875 C7.52641832 91.48878414 5.77327356 93.24649223 4 95 C3.39671875 95.60457031 2.7934375 96.20914063 2.171875 96.83203125 C1.78515625 97.21746094 1.3984375 97.60289063 1 98 C1.54140625 98.83144531 1.54140625 98.83144531 2.09375 99.6796875 C2.5578125 100.40414062 3.021875 101.12859375 3.5 101.875 C3.9640625 102.59429687 4.428125 103.31359375 4.90625 104.0546875 C6 106 6 106 6 108 C4.25 107.9375 4.25 107.9375 2 107 C0.40498463 104.75835678 -0.74543018 102.46433357 -2 100 C-2.69222656 100.27714844 -3.38445312 100.55429688 -4.09765625 100.83984375 C-5.05542969 101.22269531 -6.01320312 101.60554688 -7 102 C-8.02996094 102.41378906 -9.05992187 102.82757813 -10.12109375 103.25390625 C-11.21550781 103.68574219 -12.30992187 104.11757812 -13.4375 104.5625 C-14.52933594 104.99691406 -15.62117187 105.43132812 -16.74609375 105.87890625 C-31.58812491 110.99254724 -47.56375811 108.51456324 -61.4140625 101.8359375 C-61.93742187 101.56007813 -62.46078125 101.28421875 -63 101 C-63.28875 101.598125 -63.5775 102.19625 -63.875 102.8125 C-65 105 -65 105 -67 108 C-66.3709375 108.47308594 -65.741875 108.94617188 -65.09375 109.43359375 C-52.05904009 119.50408499 -42.34590251 131.86294596 -39.375 148.5 C-37.66436479 165.09949725 -39.99914828 181.07767108 -50.30126953 194.72363281 C-54.93338972 200.35636905 -59.81033478 205.12805083 -66 209 C-65.43111163 212.9822186 -64.10998585 215.60567493 -62 219 C-62 219.66 -62 220.32 -62 221 C-63.859375 220.75390625 -63.859375 220.75390625 -66 220 C-67.265625 218.15234375 -67.265625 218.15234375 -68.25 215.9375 C-68.58515625 215.20402344 -68.9203125 214.47054687 -69.265625 213.71484375 C-69.50796875 213.14894531 -69.7503125 212.58304688 -70 212 C-70.94101563 212.34933594 -71.88203125 212.69867188 -72.8515625 213.05859375 C-74.10927474 213.51850345 -75.36709293 213.97812347 -76.625 214.4375 C-77.85476562 214.88996094 -79.08453125 215.34242188 -80.3515625 215.80859375 C-95.775202 220.84522121 -111.44322128 218.57691135 -125.80078125 211.6484375 C-141.50586069 202.90439638 -150.48136608 189.66701519 -156 173 C-159.40871229 157.43216155 -156.96691586 142.54777067 -149.25 128.6875 C-141.47970227 116.75454277 -131.3493422 108.01470942 -118 103 C-117.28972656 102.7009375 -116.57945313 102.401875 -115.84765625 102.09375 C-102.51072125 97.16934323 -86.5733877 99.33379937 -73.75 104.6875 C-72.8425 105.120625 -71.935 105.55375 -71 106 C-69.35 104.02 -67.7 102.04 -66 100 C-68.49574958 97.40026085 -71.11579701 95.05990748 -73.875 92.75 C-85.44069991 82.6193036 -92.26815061 68.0497272 -93.3515625 52.76953125 C-94.11027569 35.8480386 -88.7762916 21.74121515 -77.75 8.8125 C-70.97423023 1.57061183 -63.26259679 -3.52048538 -54 -7 C-53.28972656 -7.2990625 -52.57945312 -7.598125 -51.84765625 -7.90625 C-34.87933379 -14.17147675 -14.7542187 -9.49146035 0 0 Z " fill="#92CAE7" transform="translate(229,21)"/>
<path d="M0 0 C8.96668334 -0.28422002 16.30930357 0.86408877 24.6328125 4.19140625 C25.64085937 4.59230469 26.64890625 4.99320312 27.6875 5.40625 C43.00968248 12.27138371 53.05130454 24.51727723 59.0703125 40.00390625 C60.49594621 44.38129257 61.44065483 48.58730846 61.6328125 53.19140625 C61.69597656 54.30386719 61.75914062 55.41632813 61.82421875 56.5625 C62.10868156 65.52766666 60.95953485 72.86938609 57.6328125 81.19140625 C57.23191406 82.19945312 56.83101563 83.2075 56.41796875 84.24609375 C51.75997507 94.64219559 44.30446107 103.1608489 34.6328125 109.19140625 C35.18004933 112.5660334 35.6877125 114.27375625 37.6328125 117.19140625 C41.2729222 116.72472552 44.56356691 115.91509836 48.0078125 114.69140625 C63.19361978 109.52873545 79.28486943 111.63099807 93.6328125 118.19140625 C107.84137859 125.40898279 117.30975306 137.18225332 123.0703125 152.00390625 C124.49585211 156.37472372 125.4434855 160.59233777 125.6328125 165.19140625 C125.684375 166.24199219 125.7359375 167.29257812 125.7890625 168.375 C126.23540008 185.35442558 120.77942102 200.66621529 109.10351562 213.05664062 C98.01418321 224.0861116 83.45821952 230.29081006 67.8828125 230.37890625 C51.53914198 230.22455889 36.54508566 224.76814937 24.4453125 213.56640625 C12.48079328 200.86485299 7.31861704 185.85704791 7.48046875 168.71875 C8.17819099 152.56379651 15.12888371 138.0078103 26.73828125 126.84765625 C32.06441627 122.19140625 32.06441627 122.19140625 34.6328125 122.19140625 C34.18138369 120.89731033 33.72140229 119.60619566 33.2578125 118.31640625 C33.00257813 117.59710938 32.74734375 116.8778125 32.484375 116.13671875 C31.69403467 114.00982631 31.69403467 114.00982631 29.6328125 112.19140625 C28.75238281 112.54074219 27.87195313 112.89007813 26.96484375 113.25 C25.80339844 113.70503906 24.64195312 114.16007812 23.4453125 114.62890625 C22.29675781 115.08136719 21.14820313 115.53382813 19.96484375 116 C5.65910262 121.11518294 -10.79745063 118.27504527 -24.3671875 112.19140625 C-39.49886502 104.06743184 -49.14339093 91.90356118 -54.67578125 75.62890625 C-59.02672253 60.28999461 -56.3098157 43.26011831 -48.83203125 29.33203125 C-43.08543836 19.85473455 -35.77950059 11.61155337 -25.3671875 7.19140625 C-23.8821875 7.68640625 -23.8821875 7.68640625 -22.3671875 8.19140625 C-22.8621875 6.70640625 -22.8621875 6.70640625 -23.3671875 5.19140625 C-15.47698892 2.36408509 -8.35176006 0.47475202 0 0 Z " fill="#EFC7B0" transform="translate(257.3671875,120.80859375)"/>
<path d="M0 0 C0.99 0.33 1.98 0.66 3 1 C2.0409375 2.36125 2.0409375 2.36125 1.0625 3.75 C-0.61428953 6.39221381 -1.53689998 7.9898499 -2 11 C-1.41992188 11.26554688 -0.83984375 11.53109375 -0.2421875 11.8046875 C11.61038956 18.12330872 18.74325439 30.94849322 23.1328125 43.1484375 C27.77379768 58.40933473 25.20751172 74.7798538 18.09790039 88.77587891 C10.33105489 102.96564825 -2.26366361 112.069238 -17.46484375 117.30859375 C-32.96226097 121.53516208 -49.80685858 119.00943248 -63.859375 111.46484375 C-78.01835857 102.87949321 -87.61545918 90.07664966 -92 74 C-95.26923308 57.8499886 -92.26130616 41.34936939 -83.75 27.3125 C-74.68636952 13.73642101 -61.61600719 5.48490129 -45.86328125 1.453125 C-43.89243757 1.16241487 -41.99239297 1.05289539 -40 1 C-38.95199219 0.94972656 -37.90398437 0.89945313 -36.82421875 0.84765625 C-25.72794628 0.54447941 -16.22497284 2.87068405 -6 7 C-4.02 4.69 -2.04 2.38 0 0 Z " fill="#CBEFCB" transform="translate(229,234)"/>
<path d="M0 0 C0.99 0.33 1.98 0.66 3 1 C1.35 3.97 -0.3 6.94 -2 10 C-1.26394531 10.26683594 -0.52789062 10.53367188 0.23046875 10.80859375 C13.62997202 16.57283705 21.44634725 29.19657893 27 42 C31.93206019 55.69646445 31.37476358 70.55466667 26 84 C25.59910156 85.00804687 25.19820313 86.01609375 24.78515625 87.0546875 C18.34277116 101.43334408 7.22680771 111.13788505 -7.09375 117.33984375 C-23.27178797 123.45009734 -40.32047874 122.02950604 -56 115 C-71.13167752 106.87602559 -80.77620343 94.71215493 -86.30859375 78.4375 C-90.65953503 63.09858836 -87.9426282 46.06871206 -80.46484375 32.140625 C-71.86989928 17.96581909 -59.07728252 8.40787619 -43 4 C-40.16848161 3.43369632 -37.84170431 3.11347904 -35 3 C-33.86433594 2.9484375 -32.72867188 2.896875 -31.55859375 2.84375 C-24.3539944 2.66926929 -18.191083 3.04985409 -11.3671875 5.44140625 C-8.524031 6.11231612 -6.77143995 5.88834135 -4 5 C-1.68392126 2.54366927 -1.68392126 2.54366927 0 0 Z " fill="#EFC7B0" transform="translate(96,230)"/>
<path d="M0 0 C16.98251291 -0.46299108 32.30609254 5.0050306 44.69726562 16.68164062 C54.19108308 26.2269849 61.27158403 39.53814662 61.83203125 53.15234375 C61.909375 54.72822266 61.909375 54.72822266 61.98828125 56.3359375 C62.43461883 73.31536308 56.97863977 88.62715279 45.30273438 101.01757812 C34.21340196 112.0470491 19.65743827 118.25174756 4.08203125 118.33984375 C-12.26163927 118.18549639 -27.25569559 112.72908687 -39.35546875 101.52734375 C-51.31998797 88.82579049 -56.48216421 73.81798541 -56.3203125 56.6796875 C-55.62259026 40.52473401 -48.67189754 25.9687478 -37.0625 14.80859375 C-31.73636498 10.15234375 -31.73636498 10.15234375 -29.16796875 10.15234375 C-28.83796875 9.49234375 -28.50796875 8.83234375 -28.16796875 8.15234375 C-27.17796875 8.48234375 -26.18796875 8.81234375 -25.16796875 9.15234375 C-25.49796875 8.16234375 -25.82796875 7.17234375 -26.16796875 6.15234375 C-17.36626148 3.04653298 -9.38678444 0.45139901 0 0 Z " fill="#CBEFCB" transform="translate(321.16796875,232.84765625)"/>
<path d="M0 0 C0.99 0.33 1.98 0.66 3 1 C1.02 3.97 -0.96 6.94 -3 10 C-3.66 9.67 -4.32 9.34 -5 9 C-4.42647107 5.12867972 -2.51295648 2.91827204 0 0 Z " fill="#45728E" transform="translate(229,234)"/>
<path d="M0 0 C0.99 0.33 1.98 0.66 3 1 C1.02 3.97 -0.96 6.94 -3 10 C-3.66 9.67 -4.32 9.34 -5 9 C-4.42647107 5.12867972 -2.51295648 2.91827204 0 0 Z " fill="#45718D" transform="translate(96,230)"/>
<path d="M0 0 C0.99 0.33 1.98 0.66 3 1 C1.02 3.97 -0.96 6.94 -3 10 C-3.66 9.67 -4.32 9.34 -5 9 C-4.42647107 5.12867972 -2.51295648 2.91827204 0 0 Z " fill="#41708D" transform="translate(165,119)"/>
<path d="M0 0 C3.48331435 3.01887244 4.79157144 5.56909529 6 10 C4.140625 9.75390625 4.140625 9.75390625 2 9 C0.734375 7.15234375 0.734375 7.15234375 -0.25 4.9375 C-0.58515625 4.20402344 -0.9203125 3.47054687 -1.265625 2.71484375 C-1.50796875 2.14894531 -1.7503125 1.58304688 -2 1 C-1.34 0.67 -0.68 0.34 0 0 Z " fill="#3F6E8A" transform="translate(290,232)"/>
<path d="M0 0 C3.48331435 3.01887244 4.79157144 5.56909529 6 10 C4.1875 9.875 4.1875 9.875 2 9 C0.1875 6.125 0.1875 6.125 -1 3 C-0.67 2.01 -0.34 1.02 0 0 Z " fill="#416F8B" transform="translate(161,232)"/>
<path d="M0 0 C3.48331435 3.01887244 4.79157144 5.56909529 6 10 C4.1875 9.875 4.1875 9.875 2 9 C0.1875 6.125 0.1875 6.125 -1 3 C-0.67 2.01 -0.34 1.02 0 0 Z " fill="#3E6C88" transform="translate(229,119)"/>
</svg>
